<svg width="72" height="72" viewBox="0 0 72 72" fill="none" xmlns="http://www.w3.org/2000/svg">
<circle cx="36" cy="36" r="36" fill="#DFD9ED"/>
<path d="M27.04 28.16H16V30.24H20.34V43.04H22.74V30.24H27.04V28.16Z" fill="white"/>
<path d="M34.5208 41.1C31.4808 41.1 29.4808 38.92 29.4808 35.6C29.4808 32.28 31.4808 30.1 34.5208 30.1C37.5808 30.1 39.5608 32.28 39.5608 35.6C39.5608 38.92 37.5808 41.1 34.5208 41.1ZM27.0808 35.6C27.0808 40.06 30.1608 43.2 34.5208 43.2C38.9008 43.2 41.9808 40.06 41.9808 35.6C41.9808 31.14 38.9008 28 34.5208 28C30.1608 28 27.0808 31.14 27.0808 35.6Z" fill="white"/>
<path d="M50.2163 35.98H46.4563V30.24H50.1963C51.7763 30.24 52.8162 31.38 52.8162 33.12C52.8162 34.84 51.7963 35.98 50.2163 35.98ZM44.0563 43.04H46.4563V38.06H50.2962C53.1762 38.06 55.2163 36.02 55.2163 33.12C55.2163 30.2 53.1762 28.16 50.2962 28.16H44.0563V43.04Z" fill="white"/>
</svg>
