<svg width="94" height="66" viewBox="0 0 94 66" fill="none" xmlns="http://www.w3.org/2000/svg">
<path fill-rule="evenodd" clip-rule="evenodd" d="M15.7632 1.09541C15.5915 0.68727 15.0132 0.687272 14.8415 1.09542L11.0957 9.99905H10C4.47715 9.99905 0 14.4762 0 19.9991V55.9991C0 61.5219 4.47715 65.999 10 65.999H84C89.5229 65.999 94 61.5219 94 55.9991V19.9991C94 14.4762 89.5229 9.99905 84 9.99905H19.509L15.7632 1.09541Z" fill="#D9D9D9"/>
<path d="M6.444 27.719V28.595H9.012V29.555H7.584V30.395H13.716V31.223H7.62V33.815H15.108V32.963H8.688V32.015H14.796V29.555H13.524V28.595H16.008V27.719H6.444ZM7.68 26.927H14.772V23.687H7.68V26.927ZM8.748 26.063V24.539H13.692V26.063H8.748ZM10.092 29.555V28.595H12.444V29.555H10.092ZM24.5403 23.315V33.935H25.6443V23.315H24.5403ZM17.5083 25.187H21.3243V27.263H17.5323V31.391H18.4203C20.2683 31.391 21.8523 31.331 23.7243 31.007L23.6043 30.119C21.8403 30.407 20.3403 30.479 18.6363 30.491V28.151H22.4283V24.299H17.5083V25.187ZM38.1542 23.327V33.911H39.1982V23.327H38.1542ZM30.3062 27.899C30.3062 30.203 31.1942 31.631 32.5622 31.631C33.8582 31.631 34.7222 30.371 34.8182 28.295H36.0302V33.395H37.0622V23.555H36.0302V27.395H34.8182C34.6982 25.403 33.8342 24.179 32.5622 24.179C31.1942 24.179 30.3062 25.607 30.3062 27.899ZM31.3022 27.899C31.3022 26.207 31.7822 25.211 32.5622 25.211C33.3542 25.211 33.8342 26.207 33.8342 27.899C33.8342 29.603 33.3542 30.599 32.5622 30.599C31.7822 30.599 31.3022 29.603 31.3022 27.899ZM41.8025 24.323V25.211H48.0545V25.307C48.0545 25.787 48.0545 26.303 48.0305 26.879L41.5145 27.119L41.6585 28.067L47.9705 27.707C47.9105 28.427 47.8025 29.219 47.6105 30.131L48.6905 30.251C49.1345 28.055 49.1345 26.603 49.1345 25.307V24.323H41.8025ZM40.6745 32.519H50.2385V31.619H45.4145V28.931H44.3225V31.619H40.6745V32.519ZM54.1564 24.407V25.283H55.1764V30.443H53.8444L53.9644 31.367C55.8004 31.367 58.2484 31.307 60.3844 30.971L60.3004 30.167C59.8324 30.227 59.3524 30.263 58.8604 30.299V25.283H60.0004V24.407H54.1564ZM56.2444 30.419V25.283H57.7924V30.371C57.2764 30.395 56.7484 30.407 56.2444 30.419ZM59.6524 28.187H61.5724V33.923H62.6644V23.339H61.5724V27.287H59.6524V28.187ZM67.3743 24.395V25.307H69.7503V26.483C69.7503 28.259 68.5623 30.263 67.0023 31.031L67.6383 31.895C68.8263 31.295 69.8103 29.975 70.2903 28.475C70.7703 29.855 71.7063 31.055 72.8943 31.631L73.5183 30.767C71.9343 30.023 70.8303 28.139 70.8303 26.483V25.307H73.1103V24.395H67.3743ZM74.2503 33.923H75.3543V28.475H77.0343V27.563H75.3543V23.339H74.2503V33.923ZM85.6266 23.327V30.491H86.6586V23.327H85.6266ZM77.7186 29.411L78.2586 30.215C79.9506 29.471 81.0426 28.487 81.6666 27.287H83.5146V29.543H84.5466V23.519H83.5146V26.399H82.0386C82.2546 25.727 82.3506 24.983 82.3506 24.203H78.2346V25.091H81.2586C81.2226 25.475 81.1506 25.847 81.0306 26.207L77.7546 26.411L77.9106 27.311L80.6826 27.023C80.1306 27.983 79.1946 28.787 77.7186 29.411ZM78.9786 33.023L79.3986 33.887C81.0306 33.611 82.4346 32.795 83.0826 31.655C83.7426 32.795 85.1586 33.611 86.7786 33.887L87.1866 33.023C85.2306 32.723 83.6346 31.535 83.6346 30.191V29.891H82.5426V30.191C82.5426 31.535 80.9466 32.723 78.9786 33.023Z" fill="white"/>
<path d="M22.492 43.323H21.436L19.492 44.535L19.996 45.387L21.436 44.487V52.011H22.492V43.323ZM27.3729 51.171C26.1129 51.171 25.2489 49.731 25.2489 47.667C25.2489 45.603 26.1129 44.175 27.3729 44.175C28.6209 44.175 29.4849 45.603 29.4849 47.667C29.4849 49.731 28.6209 51.171 27.3729 51.171ZM24.1929 47.667C24.1929 50.271 25.5129 52.095 27.3729 52.095C29.2329 52.095 30.5409 50.271 30.5409 47.667C30.5409 45.075 29.2329 43.239 27.3729 43.239C25.5129 43.239 24.1929 45.075 24.1929 47.667ZM33.1332 48.015C33.4932 47.607 34.0812 47.319 34.5612 47.319C35.7012 47.319 36.5052 48.099 36.5052 49.203C36.5052 50.343 35.7012 51.135 34.5612 51.135C33.6732 51.135 32.9292 50.535 32.7372 49.671L31.7052 49.911C32.0172 51.207 33.1932 52.131 34.5612 52.131C36.3252 52.131 37.5612 50.919 37.5612 49.203C37.5612 47.511 36.3252 46.323 34.5612 46.323C34.1292 46.323 33.6492 46.455 33.2292 46.659L33.3852 44.247H36.8532V43.311H32.3652L32.0772 47.859L33.1332 48.015ZM40.1404 51.003H39.0244L38.6284 53.475H39.4084L40.1404 51.003ZM45.2909 51.171C44.0309 51.171 43.1669 49.731 43.1669 47.667C43.1669 45.603 44.0309 44.175 45.2909 44.175C46.5389 44.175 47.4029 45.603 47.4029 47.667C47.4029 49.731 46.5389 51.171 45.2909 51.171ZM42.1109 47.667C42.1109 50.271 43.4309 52.095 45.2909 52.095C47.1509 52.095 48.4589 50.271 48.4589 47.667C48.4589 45.075 47.1509 43.239 45.2909 43.239C43.4309 43.239 42.1109 45.075 42.1109 47.667ZM52.7792 51.171C51.5192 51.171 50.6552 49.731 50.6552 47.667C50.6552 45.603 51.5192 44.175 52.7792 44.175C54.0272 44.175 54.8912 45.603 54.8912 47.667C54.8912 49.731 54.0272 51.171 52.7792 51.171ZM49.5992 47.667C49.5992 50.271 50.9192 52.095 52.7792 52.095C54.6392 52.095 55.9472 50.271 55.9472 47.667C55.9472 45.075 54.6392 43.239 52.7792 43.239C50.9192 43.239 49.5992 45.075 49.5992 47.667ZM60.2674 51.171C59.0074 51.171 58.1434 49.731 58.1434 47.667C58.1434 45.603 59.0074 44.175 60.2674 44.175C61.5154 44.175 62.3794 45.603 62.3794 47.667C62.3794 49.731 61.5154 51.171 60.2674 51.171ZM57.0874 47.667C57.0874 50.271 58.4074 52.095 60.2674 52.095C62.1274 52.095 63.4354 50.271 63.4354 47.667C63.4354 45.075 62.1274 43.239 60.2674 43.239C58.4074 43.239 57.0874 45.075 57.0874 47.667ZM72.0757 42.327V48.567H69.9637V49.335H72.0757V50.379H73.1677V42.327H72.0757ZM64.3957 47.175L64.5397 48.075C65.3917 48.075 66.3757 48.063 67.3957 48.015V50.019H68.4877V47.955C69.4237 47.895 70.3717 47.799 71.2717 47.655L71.1997 46.863C68.9557 47.151 66.3397 47.175 64.3957 47.175ZM65.2117 44.595C65.2117 45.723 66.2797 46.455 67.8277 46.455C69.3757 46.455 70.4317 45.723 70.4317 44.595C70.4317 43.479 69.3757 42.747 67.8277 42.747C66.2797 42.747 65.2117 43.479 65.2117 44.595ZM65.8597 52.695H73.4197V51.795H66.9517V49.599H65.8597V52.695ZM66.2557 44.595C66.2557 43.959 66.9037 43.551 67.8277 43.551C68.7517 43.551 69.3877 43.959 69.3877 44.595C69.3877 45.243 68.7517 45.639 67.8277 45.639C66.9037 45.639 66.2557 45.243 66.2557 44.595Z" fill="white"/>
</svg>
