<svg width="128" height="66" viewBox="0 0 128 66" fill="none" xmlns="http://www.w3.org/2000/svg">
<path fill-rule="evenodd" clip-rule="evenodd" d="M10 0C4.47715 0 0 4.47715 0 10V46C0 51.5228 4.47715 56 10 56H11.0953L14.8415 64.9045C15.0132 65.3127 15.5915 65.3127 15.7632 64.9045L19.5094 56H118C123.523 56 128 51.5229 128 46V10C128 4.47715 123.523 0 118 0H10Z" fill="#D9D9D9"/>
<path d="M10.764 15.776V16.676H12.252V18.14H10.764V19.028H12.252V23.396H13.272V13.556H12.252V15.776H10.764ZM6.276 20.96L6.948 21.764C7.968 21.128 8.688 19.964 9.06 18.608C9.42 19.868 10.08 20.96 11.064 21.584L11.7 20.744C10.308 19.88 9.588 18.08 9.588 16.364V14.324H8.532V16.364C8.532 18.188 7.752 20.084 6.276 20.96ZM14.4 23.912H15.456V13.328H14.4V23.912ZM24.5403 13.316V23.936H25.6443V13.316H24.5403ZM17.5083 15.188H21.3243V17.264H17.5323V21.392H18.4203C20.2683 21.392 21.8523 21.332 23.7243 21.008L23.6043 20.12C21.8403 20.408 20.3403 20.48 18.6363 20.492V18.152H22.4283V14.3H17.5083V15.188ZM27.4206 21.68V22.592H37.0086V21.68H27.4206ZM28.2486 15.248H29.8326V18.8H28.2726V19.688H36.1206V18.8H34.5486V15.248H36.1446V14.348H28.2486V15.248ZM30.9366 18.8V15.248H33.4566V18.8H30.9366ZM40.6745 21.74V22.64H50.2625V21.74H46.0025V19.844H49.3505V18.956H42.9305V17.36H49.1105V14.084H41.8265V14.972H48.0185V16.496H41.8505V19.844H44.9105V21.74H40.6745ZM52.1708 14.348V15.248H58.5428V15.392C58.5428 16.664 58.5428 18.152 58.1468 20.204L59.2508 20.324C59.6348 18.164 59.6348 16.7 59.6348 15.392V14.348H52.1708ZM51.1628 22.484H60.7388V21.572H55.9028V17.828H54.8108V21.572H51.1628V22.484ZM68.7847 17.312V18.2H70.2367V23.384H71.2687V13.568H70.2367V17.312H68.7847ZM64.7887 21.428H65.4847C67.1047 21.428 68.1007 21.392 69.3007 21.152L69.2047 20.276C68.1247 20.492 67.2127 20.528 65.8327 20.54V18.308H68.2447V17.456H65.8327V15.464H68.7127V14.576H64.7887V21.428ZM72.3847 23.912H73.4287V13.328H72.3847V23.912ZM82.5129 13.316V23.936H83.6169V13.316H82.5129ZM75.4809 15.188H79.2969V17.264H75.5049V21.392H76.3929C78.2409 21.392 79.8249 21.332 81.6969 21.008L81.5769 20.12C79.8129 20.408 78.3129 20.48 76.6089 20.492V18.152H80.4009V14.3H75.4809V15.188ZM95.8148 13.316V17.216H93.4868V14.168H92.4068V16.868H89.6588V14.168H88.5668V21.308H93.4868V18.104H95.8148V23.936H96.9068V13.316H95.8148ZM89.6588 20.408V17.732H92.4068V20.408H89.6588ZM106.243 13.328V20.468H107.335V13.328H106.243ZM98.8631 16.304L99.0311 17.18L102.379 16.928C101.731 17.852 100.615 18.596 98.9111 19.112L99.3191 20C102.811 18.896 104.239 16.868 104.239 14.048H99.3911V14.936H103.075C103.039 15.356 102.955 15.752 102.811 16.124L98.8631 16.304ZM99.7991 23.024L100.231 23.888C101.863 23.588 103.243 22.76 103.879 21.56C104.503 22.748 105.847 23.564 107.443 23.864L107.899 23C105.931 22.664 104.455 21.5 104.455 20.036V19.7H103.315V20.036C103.315 21.512 101.803 22.7 99.7991 23.024ZM119.797 13.34V16.292H118.597V13.52H117.577V19.892H118.597V17.18H119.797V20.744H120.841V13.34H119.797ZM111.841 15.476H117.157V14.6H115.057V13.424H113.965V14.6H111.841V15.476ZM112.249 17.852C112.249 18.968 113.185 19.724 114.517 19.724C115.849 19.724 116.773 18.968 116.773 17.852C116.773 16.736 115.849 15.98 114.517 15.98C113.185 15.98 112.249 16.736 112.249 17.852ZM113.173 23.036L113.557 23.888C115.213 23.648 116.641 22.94 117.289 21.884C117.949 22.94 119.377 23.648 121.021 23.888L121.405 23.036C119.437 22.796 117.841 21.764 117.841 20.552V20.312H116.761V20.552C116.761 21.764 115.177 22.796 113.173 23.036ZM113.233 17.852C113.233 17.216 113.761 16.796 114.517 16.796C115.273 16.796 115.801 17.216 115.801 17.852C115.801 18.5 115.273 18.908 114.517 18.908C113.761 18.908 113.233 18.5 113.233 17.852Z" fill="white"/>
<path d="M39.684 41.088L39.804 42.024H45.12V41.088H41.16C42.816 39.6 44.976 37.812 44.976 35.976C44.976 34.356 43.872 33.216 42.3 33.216C41.184 33.216 40.056 33.972 39.588 35.04L40.536 35.46C40.86 34.704 41.592 34.176 42.3 34.176C43.26 34.176 43.92 34.92 43.92 35.976C43.92 37.5 41.424 39.42 39.684 41.088ZM49.2194 34.152C50.3114 34.152 51.0794 34.956 51.0794 36.096C51.0794 37.248 50.3114 38.052 49.2194 38.052C48.1034 38.052 47.3234 37.248 47.3234 36.096C47.3234 34.956 48.1034 34.152 49.2194 34.152ZM46.2674 36.096C46.2674 37.788 47.4674 38.976 49.1954 38.988C49.3994 38.988 49.6154 38.952 49.8074 38.916L48.0314 42.024H49.2434L51.6794 37.728C51.9314 37.284 52.1354 36.72 52.1354 36.096C52.1354 34.416 50.9354 33.228 49.2074 33.228C47.4794 33.228 46.2674 34.416 46.2674 36.096ZM54.7147 41.004H53.5987L53.2027 43.476H53.9827L54.7147 41.004ZM61.6531 33.324H60.6331L56.6971 38.736L56.8171 39.66H60.5971V42.012H61.6531V39.66H62.8531V38.736H61.6531V33.324ZM57.9691 38.736L60.5971 35.112V38.736H57.9691ZM67.1776 41.172C65.9176 41.172 65.0536 39.732 65.0536 37.668C65.0536 35.604 65.9176 34.176 67.1776 34.176C68.4256 34.176 69.2896 35.604 69.2896 37.668C69.2896 39.732 68.4256 41.172 67.1776 41.172ZM63.9976 37.668C63.9976 40.272 65.3176 42.096 67.1776 42.096C69.0376 42.096 70.3456 40.272 70.3456 37.668C70.3456 35.076 69.0376 33.24 67.1776 33.24C65.3176 33.24 63.9976 35.076 63.9976 37.668ZM74.6659 41.172C73.4059 41.172 72.5419 39.732 72.5419 37.668C72.5419 35.604 73.4059 34.176 74.6659 34.176C75.9139 34.176 76.7779 35.604 76.7779 37.668C76.7779 39.732 75.9139 41.172 74.6659 41.172ZM71.4859 37.668C71.4859 40.272 72.8059 42.096 74.6659 42.096C76.5259 42.096 77.8339 40.272 77.8339 37.668C77.8339 35.076 76.5259 33.24 74.6659 33.24C72.8059 33.24 71.4859 35.076 71.4859 37.668ZM86.4742 32.328V38.568H84.3622V39.336H86.4742V40.38H87.5662V32.328H86.4742ZM78.7942 37.176L78.9382 38.076C79.7902 38.076 80.7742 38.064 81.7942 38.016V40.02H82.8862V37.956C83.8222 37.896 84.7702 37.8 85.6702 37.656L85.5982 36.864C83.3542 37.152 80.7382 37.176 78.7942 37.176ZM79.6102 34.596C79.6102 35.724 80.6782 36.456 82.2262 36.456C83.7742 36.456 84.8302 35.724 84.8302 34.596C84.8302 33.48 83.7742 32.748 82.2262 32.748C80.6782 32.748 79.6102 33.48 79.6102 34.596ZM80.2582 42.696H87.8182V41.796H81.3502V39.6H80.2582V42.696ZM80.6542 34.596C80.6542 33.96 81.3022 33.552 82.2262 33.552C83.1502 33.552 83.7862 33.96 83.7862 34.596C83.7862 35.244 83.1502 35.64 82.2262 35.64C81.3022 35.64 80.6542 35.244 80.6542 34.596Z" fill="white"/>
</svg>
