<svg width="94" height="66" viewBox="0 0 94 66" fill="none" xmlns="http://www.w3.org/2000/svg">
<path fill-rule="evenodd" clip-rule="evenodd" d="M10 0C4.47715 0 0 4.47715 0 10V46C0 51.5228 4.47715 56 10 56H11.0953L14.8415 64.9045C15.0132 65.3127 15.5915 65.3127 15.7632 64.9045L19.5094 56H84C89.5229 56 94 51.5229 94 46V10C94 4.47715 89.5229 0 84 0H10Z" fill="#D9D9D9"/>
<path d="M7.852 14.336V21.272H12.724V18.044H15.1V23.936H16.192V13.316H15.1V17.144H12.724V14.336H7.852ZM8.932 20.396V15.212H11.644V20.396H8.932ZM19.1203 13.964V14.852H25.2643V14.936C25.2643 15.356 25.2643 15.788 25.2403 16.256L18.8083 16.472L18.9403 17.408L25.1803 17.108C25.1203 17.66 25.0243 18.272 24.8683 18.956H17.9323V19.856H20.3323V23.936H21.4363V19.856H23.9563V23.936H25.0603V19.856H27.5083V18.956H25.9603C26.3323 17.24 26.3323 16.028 26.3323 14.936V13.964H19.1203ZM36.0286 13.316V23.936H37.1326V13.316H36.0286ZM28.9966 15.188H32.8126V17.264H29.0206V21.392H29.9086C31.7566 21.392 33.3406 21.332 35.2126 21.008L35.0926 20.12C33.3286 20.408 31.8286 20.48 30.1246 20.492V18.152H33.9166V14.3H28.9966V15.188ZM48.7545 13.316V23.936H49.8585V18.356H51.5385V17.444H49.8585V13.316H48.7545ZM42.1305 21.32H42.9705C44.9265 21.32 46.3305 21.26 47.9505 20.96L47.8305 20.036C46.3305 20.324 45.0225 20.396 43.2105 20.396V15.236H47.0505V14.36H42.1305V21.32ZM52.1628 18.656V19.544H56.4708V21.608H57.5868V19.544H61.7508V18.656H52.1628ZM53.2068 15.728C53.2068 17.048 54.7068 17.864 56.9388 17.864C59.2068 17.864 60.6828 17.048 60.6828 15.728C60.6828 14.408 59.2068 13.58 56.9388 13.58C54.7068 13.58 53.2068 14.408 53.2068 15.728ZM53.3628 23.696H60.6948V22.796H54.4668V20.588H53.3628V23.696ZM54.3828 15.728C54.3828 14.936 55.4028 14.468 56.9388 14.468C58.4987 14.468 59.5188 14.936 59.5188 15.728C59.5188 16.508 58.4987 16.976 56.9388 16.976C55.4028 16.976 54.3828 16.508 54.3828 15.728ZM65.6087 14.396V15.308H67.9847V16.484C67.9847 18.26 66.7967 20.264 65.2367 21.032L65.8727 21.896C67.0607 21.296 68.0447 19.976 68.5247 18.476C69.0047 19.856 69.9407 21.056 71.1287 21.632L71.7527 20.768C70.1687 20.024 69.0647 18.14 69.0647 16.484V15.308H71.3447V14.396H65.6087ZM72.4847 23.924H73.5887V18.476H75.2687V17.564H73.5887V13.34H72.4847V23.924ZM83.8609 13.328V20.492H84.8929V13.328H83.8609ZM75.9529 19.412L76.4929 20.216C78.1849 19.472 79.2769 18.488 79.9009 17.288H81.7489V19.544H82.7809V13.52H81.7489V16.4H80.2729C80.4889 15.728 80.5849 14.984 80.5849 14.204H76.4689V15.092H79.4929C79.4569 15.476 79.3849 15.848 79.2649 16.208L75.9889 16.412L76.1449 17.312L78.9169 17.024C78.3649 17.984 77.4289 18.788 75.9529 19.412ZM77.2129 23.024L77.6329 23.888C79.2649 23.612 80.6689 22.796 81.3169 21.656C81.9769 22.796 83.3929 23.612 85.0129 23.888L85.4209 23.024C83.4649 22.724 81.8689 21.536 81.8689 20.192V19.892H80.7769V20.192C80.7769 21.536 79.1809 22.724 77.2129 23.024Z" fill="white"/>
<path d="M23.492 33.324H22.436L20.492 34.536L20.996 35.388L22.436 34.488V42.012H23.492V33.324ZM28.0969 41.22C27.0169 41.22 26.2609 40.524 26.2609 39.54C26.2609 38.58 27.0169 37.896 28.0969 37.896C29.1769 37.896 29.9329 38.58 29.9329 39.54C29.9329 40.524 29.1769 41.22 28.0969 41.22ZM25.2049 39.54C25.2049 41.064 26.4049 42.144 28.0969 42.144C29.8009 42.144 30.9889 41.064 30.9889 39.54C30.9889 38.772 30.4129 37.908 29.5849 37.428C30.2809 36.96 30.7729 36.18 30.7729 35.556C30.7729 34.152 29.6689 33.168 28.0969 33.168C26.5369 33.168 25.4449 34.152 25.4449 35.556C25.4449 36.18 25.9249 36.948 26.6329 37.428C25.7929 37.908 25.2049 38.772 25.2049 39.54ZM26.5009 35.544C26.5009 34.68 27.1609 34.08 28.0969 34.08C29.0449 34.08 29.7169 34.68 29.7169 35.544C29.7169 36.384 29.0449 36.972 28.0969 36.972C27.1609 36.972 26.5009 36.384 26.5009 35.544ZM35.0584 33.324H34.0024L32.0584 34.536L32.5624 35.388L34.0024 34.488V42.012H35.0584V33.324ZM38.1873 41.004H37.0713L36.6753 43.476H37.4553L38.1873 41.004ZM44.6818 37.524C45.3778 37.056 45.7858 36.276 45.7858 35.616C45.7858 34.224 44.6698 33.252 43.1098 33.252C41.5258 33.252 40.4218 34.236 40.4218 35.652H41.4778C41.4778 34.788 42.1498 34.188 43.1098 34.188C44.0698 34.188 44.7418 34.788 44.7418 35.64C44.7418 36.468 44.0458 37.056 43.0618 37.056H42.4258V37.98H43.0618C44.1178 37.98 44.8738 38.616 44.8738 39.528C44.8738 40.476 44.1178 41.148 43.0378 41.148C41.9698 41.148 41.2258 40.476 41.2258 39.528H40.1698C40.1698 41.028 41.3577 42.084 43.0378 42.084C44.7298 42.084 45.9058 41.04 45.9058 39.564C45.9058 38.832 45.4618 37.992 44.6818 37.524ZM50.2284 41.172C48.9684 41.172 48.1044 39.732 48.1044 37.668C48.1044 35.604 48.9684 34.176 50.2284 34.176C51.4764 34.176 52.3404 35.604 52.3404 37.668C52.3404 39.732 51.4764 41.172 50.2284 41.172ZM47.0484 37.668C47.0484 40.272 48.3684 42.096 50.2284 42.096C52.0884 42.096 53.3964 40.272 53.3964 37.668C53.3964 35.076 52.0884 33.24 50.2284 33.24C48.3684 33.24 47.0484 35.076 47.0484 37.668ZM57.7167 41.172C56.4567 41.172 55.5927 39.732 55.5927 37.668C55.5927 35.604 56.4567 34.176 57.7167 34.176C58.9647 34.176 59.8287 35.604 59.8287 37.668C59.8287 39.732 58.9647 41.172 57.7167 41.172ZM54.5367 37.668C54.5367 40.272 55.8567 42.096 57.7167 42.096C59.5767 42.096 60.8847 40.272 60.8847 37.668C60.8847 35.076 59.5767 33.24 57.7167 33.24C55.8567 33.24 54.5367 35.076 54.5367 37.668ZM69.5249 32.328V38.568H67.4129V39.336H69.5249V40.38H70.6169V32.328H69.5249ZM61.8449 37.176L61.9889 38.076C62.8409 38.076 63.8249 38.064 64.8449 38.016V40.02H65.9369V37.956C66.8729 37.896 67.8209 37.8 68.7209 37.656L68.6489 36.864C66.4049 37.152 63.7889 37.176 61.8449 37.176ZM62.6609 34.596C62.6609 35.724 63.7289 36.456 65.2769 36.456C66.8249 36.456 67.8809 35.724 67.8809 34.596C67.8809 33.48 66.8249 32.748 65.2769 32.748C63.7289 32.748 62.6609 33.48 62.6609 34.596ZM63.3089 42.696H70.8689V41.796H64.4009V39.6H63.3089V42.696ZM63.7049 34.596C63.7049 33.96 64.3529 33.552 65.2769 33.552C66.2009 33.552 66.8369 33.96 66.8369 34.596C66.8369 35.244 66.2009 35.64 65.2769 35.64C64.3529 35.64 63.7049 35.244 63.7049 34.596Z" fill="white"/>
</svg>
