<svg width="128" height="66" viewBox="0 0 128 66" fill="none" xmlns="http://www.w3.org/2000/svg">
<path fill-rule="evenodd" clip-rule="evenodd" d="M10 0C4.47715 0 0 4.47715 0 10V46C0 51.5228 4.47715 56 10 56H11.0953L14.8415 64.9045C15.0132 65.3127 15.5915 65.3127 15.7632 64.9045L19.5094 56H118C123.523 56 128 51.5229 128 46V10C128 4.47715 123.523 0 118 0H10Z" fill="#D9D9D9"/>
<path d="M7.444 17.72V18.596H10.012V19.556H8.584V20.396H14.716V21.224H8.62V23.816H16.108V22.964H9.688V22.016H15.796V19.556H14.524V18.596H17.008V17.72H7.444ZM8.68 16.928H15.772V13.688H8.68V16.928ZM9.748 16.064V14.54H14.692V16.064H9.748ZM11.092 19.556V18.596H13.444V19.556H11.092ZM25.5403 13.316V23.936H26.6443V13.316H25.5403ZM18.5083 15.188H22.3243V17.264H18.5323V21.392H19.4203C21.2683 21.392 22.8523 21.332 24.7243 21.008L24.6043 20.12C22.8403 20.408 21.3403 20.48 19.6363 20.492V18.152H23.4283V14.3H18.5083V15.188ZM38.7942 13.316V23.936H39.8982V13.316H38.7942ZM31.7622 15.188H35.5782V17.264H31.7862V21.392H32.6742C34.5222 21.392 36.1062 21.332 37.9782 21.008L37.8582 20.12C36.0942 20.408 34.5942 20.48 32.8902 20.492V18.152H36.6822V14.3H31.7622V15.188ZM49.3305 13.316V17.216H47.0025V14.168H45.9225V16.868H43.1745V14.168H42.0825V21.308H47.0025V18.104H49.3305V23.936H50.4225V13.316H49.3305ZM43.1745 20.408V17.732H45.9225V20.408H43.1745ZM54.8867 14.228V16.028C54.8867 18.056 53.7108 20.084 52.0788 20.84L52.7388 21.74C53.9988 21.128 54.9708 19.844 55.4628 18.284C55.9548 19.748 56.9028 20.948 58.1148 21.536L58.7628 20.66C57.1548 19.928 55.9908 17.972 55.9908 16.028V14.228H54.8867ZM59.7348 23.936H60.8268V13.316H59.7348V23.936ZM63.911 13.52V17.024H70.979V13.52H69.887V14.444H64.991V13.52H63.911ZM62.651 18.716H72.215V17.84H62.651V18.716ZM63.791 20.42H69.923V21.248H63.827V23.816H71.315V22.976H64.895V22.028H71.003V19.592H63.791V20.42ZM64.991 16.184V15.272H69.887V16.184H64.991ZM75.9049 21.74V22.64H85.4929V21.74H81.2329V19.844H84.5809V18.956H78.1609V17.36H84.3409V14.084H77.0569V14.972H83.2489V16.496H77.0809V19.844H80.1409V21.74H75.9049ZM87.4012 14.348V15.248H93.7732V15.392C93.7732 16.664 93.7732 18.152 93.3772 20.204L94.4812 20.324C94.8652 18.164 94.8652 16.7 94.8652 15.392V14.348H87.4012ZM86.3932 22.484H95.9692V21.572H91.1332V17.828H90.0412V21.572H86.3932V22.484ZM99.8391 14.396V15.308H102.215V16.484C102.215 18.26 101.027 20.264 99.4671 21.032L100.103 21.896C101.291 21.296 102.275 19.976 102.755 18.476C103.235 19.856 104.171 21.056 105.359 21.632L105.983 20.768C104.399 20.024 103.295 18.14 103.295 16.484V15.308H105.575V14.396H99.8391ZM106.715 23.924H107.819V18.476H109.499V17.564H107.819V13.34H106.715V23.924ZM118.091 13.328V20.492H119.123V13.328H118.091ZM110.183 19.412L110.723 20.216C112.415 19.472 113.507 18.488 114.131 17.288H115.979V19.544H117.011V13.52H115.979V16.4H114.503C114.719 15.728 114.815 14.984 114.815 14.204H110.699V15.092H113.723C113.687 15.476 113.615 15.848 113.495 16.208L110.219 16.412L110.375 17.312L113.147 17.024C112.595 17.984 111.659 18.788 110.183 19.412ZM111.443 23.024L111.863 23.888C113.495 23.612 114.899 22.796 115.547 21.656C116.207 22.796 117.623 23.612 119.243 23.888L119.651 23.024C117.695 22.724 116.099 21.536 116.099 20.192V19.892H115.007V20.192C115.007 21.536 113.411 22.724 111.443 23.024Z" fill="white"/>
<path d="M39.492 33.324H38.436L36.492 34.536L36.996 35.388L38.436 34.488V42.012H39.492V33.324ZM42.6449 38.016C43.0049 37.608 43.5929 37.32 44.0729 37.32C45.2129 37.32 46.0169 38.1 46.0169 39.204C46.0169 40.344 45.2129 41.136 44.0729 41.136C43.1849 41.136 42.4409 40.536 42.2489 39.672L41.2169 39.912C41.5289 41.208 42.7049 42.132 44.0729 42.132C45.8369 42.132 47.0729 40.92 47.0729 39.204C47.0729 37.512 45.8369 36.324 44.0729 36.324C43.6409 36.324 43.1609 36.456 42.7409 36.66L42.8969 34.248H46.3649V33.312H41.8769L41.5889 37.86L42.6449 38.016ZM51.1882 34.152C52.2802 34.152 53.0482 34.956 53.0482 36.096C53.0482 37.248 52.2802 38.052 51.1882 38.052C50.0722 38.052 49.2922 37.248 49.2922 36.096C49.2922 34.956 50.0722 34.152 51.1882 34.152ZM48.2362 36.096C48.2362 37.788 49.4362 38.976 51.1642 38.988C51.3682 38.988 51.5842 38.952 51.7762 38.916L50.0002 42.024H51.2122L53.6482 37.728C53.9002 37.284 54.1042 36.72 54.1042 36.096C54.1042 34.416 52.9042 33.228 51.1762 33.228C49.4482 33.228 48.2362 34.416 48.2362 36.096ZM56.6834 41.004H55.5674L55.1714 43.476H55.9514L56.6834 41.004ZM61.8338 41.172C60.5738 41.172 59.7098 39.732 59.7098 37.668C59.7098 35.604 60.5738 34.176 61.8338 34.176C63.0818 34.176 63.9458 35.604 63.9458 37.668C63.9458 39.732 63.0818 41.172 61.8338 41.172ZM58.6538 37.668C58.6538 40.272 59.9738 42.096 61.8338 42.096C63.6938 42.096 65.0018 40.272 65.0018 37.668C65.0018 35.076 63.6938 33.24 61.8338 33.24C59.9738 33.24 58.6538 35.076 58.6538 37.668ZM69.3221 41.172C68.0621 41.172 67.1981 39.732 67.1981 37.668C67.1981 35.604 68.0621 34.176 69.3221 34.176C70.5701 34.176 71.4341 35.604 71.4341 37.668C71.4341 39.732 70.5701 41.172 69.3221 41.172ZM66.1421 37.668C66.1421 40.272 67.4621 42.096 69.3221 42.096C71.1821 42.096 72.4901 40.272 72.4901 37.668C72.4901 35.076 71.1821 33.24 69.3221 33.24C67.4621 33.24 66.1421 35.076 66.1421 37.668ZM76.8104 41.172C75.5504 41.172 74.6864 39.732 74.6864 37.668C74.6864 35.604 75.5504 34.176 76.8104 34.176C78.0584 34.176 78.9224 35.604 78.9224 37.668C78.9224 39.732 78.0584 41.172 76.8104 41.172ZM73.6304 37.668C73.6304 40.272 74.9504 42.096 76.8104 42.096C78.6704 42.096 79.9784 40.272 79.9784 37.668C79.9784 35.076 78.6704 33.24 76.8104 33.24C74.9504 33.24 73.6304 35.076 73.6304 37.668ZM88.6187 32.328V38.568H86.5067V39.336H88.6187V40.38H89.7107V32.328H88.6187ZM80.9387 37.176L81.0827 38.076C81.9347 38.076 82.9187 38.064 83.9387 38.016V40.02H85.0307V37.956C85.9667 37.896 86.9147 37.8 87.8147 37.656L87.7427 36.864C85.4987 37.152 82.8827 37.176 80.9387 37.176ZM81.7547 34.596C81.7547 35.724 82.8227 36.456 84.3707 36.456C85.9187 36.456 86.9747 35.724 86.9747 34.596C86.9747 33.48 85.9187 32.748 84.3707 32.748C82.8227 32.748 81.7547 33.48 81.7547 34.596ZM82.4027 42.696H89.9627V41.796H83.4947V39.6H82.4027V42.696ZM82.7987 34.596C82.7987 33.96 83.4467 33.552 84.3707 33.552C85.2947 33.552 85.9307 33.96 85.9307 34.596C85.9307 35.244 85.2947 35.64 84.3707 35.64C83.4467 35.64 82.7987 35.244 82.7987 34.596Z" fill="white"/>
</svg>
